<svg width="280" height="76" viewBox="0 0 280 76" xmlns="http://www.w3.org/2000/svg" role="img" aria-labelledby="t d">
  <title id="t">Music</title><desc id="d">Listen at fromlost.com</desc>
  <style>
    .card{fill:#f6f8fa;stroke:#d0d7de}.label{font:600 10px ui-monospace,SFMono-Regular,Menlo,monospace;letter-spacing:1.6px;fill:#656d76}.value{font:600 15px ui-monospace,SFMono-Regular,Menlo,monospace;fill:#1f2328}.icon{fill:#1f883d}.glyph{fill:none;stroke:#fff;stroke-width:2;stroke-linecap:round}.arrow{fill:#656d76}
    @media(prefers-color-scheme:dark){.card{fill:#161b22;stroke:#30363d}.label,.arrow{fill:#8b949e}.value{fill:#f0f6fc}.icon{fill:#1f883d}}
  </style>
  <rect class="card" x=".5" y=".5" width="279" height="75" rx="10"/>
  <rect class="icon" x="22" y="26" width="24" height="24" rx="5"/>
  <g class="glyph" transform="translate(27,31) scale(0.583)">
    <path d="M3 18v-6a9 9 0 0 1 18 0v6"/>
    <path d="M21 19a2 2 0 0 1-2 2h-1a2 2 0 0 1-2-2v-3a2 2 0 0 1 2-2h3zM3 19a2 2 0 0 0 2 2h1a2 2 0 0 0 2-2v-3a2 2 0 0 0-2-2H3z"/>
  </g>
  <text class="label" x="60" y="29">MUSIC</text><text class="value" x="60" y="51">fromlost.com</text>
</svg>
